<?xml version="1.0" standalone="no"?>
<!DOCTYPE svg PUBLIC "-//W3C//DTD SVG 20010904//EN"
 "http://www.w3.org/TR/2001/REC-SVG-20010904/DTD/svg10.dtd">
<svg version="1.0" xmlns="http://www.w3.org/2000/svg"
 width="500.000000pt" height="236.000000pt" viewBox="0 0 500.000000 236.000000"
 preserveAspectRatio="xMidYMid meet">

<g transform="translate(0.000000,236.000000) scale(0.100000,-0.100000)"
fill="#000000" stroke="none">
<path d="M1586 2338 c-10 -13 -12 -27 -7 -37 7 -12 -18 -69 -45 -100 -2 -2
-21 4 -42 12 -66 26 -150 31 -223 13 -151 -39 -251 -160 -266 -323 l-6 -68 38
34 c48 42 130 81 171 81 18 0 58 -13 89 -30 31 -16 61 -30 66 -30 5 0 30 29
56 65 27 37 60 71 80 80 30 15 36 15 68 -1 37 -17 75 -65 114 -141 32 -64 45
-56 38 24 -8 86 -46 164 -110 226 l-50 49 21 36 c11 20 30 42 43 49 35 18 44
41 23 64 -22 25 -39 24 -58 -3z"/>
<path d="M1950 2184 c-6 -14 -10 -32 -10 -40 0 -9 -29 -202 -65 -429 -36 -228
-65 -417 -65 -420 0 -3 98 -5 218 -5 l218 0 17 103 c10 56 17 105 17 110 0 4
-41 7 -90 7 -89 0 -90 0 -85 23 11 49 105 631 105 653 0 24 0 24 -125 24 -125
0 -125 0 -135 -26z"/>
<path d="M2492 1803 c-89 -225 -170 -432 -181 -460 l-21 -53 128 0 127 0 18
60 17 60 90 0 90 0 0 -60 0 -60 125 0 c123 0 125 0 125 23 0 44 -52 872 -55
885 -3 9 -43 12 -153 12 l-149 0 -161 -407z m275 65 c-4 -62 -7 -148 -7 -190
l0 -78 -61 0 c-46 0 -60 3 -57 14 16 68 115 366 122 366 5 0 6 -47 3 -112z"/>
<path d="M3236 2201 c-6 -9 -145 -876 -146 -903 0 -5 50 -8 110 -8 67 0 110
-4 110 -10 0 -5 -11 -10 -25 -10 -29 0 -333 -75 -725 -180 -515 -137 -715
-189 -740 -194 -14 -2 -25 -5 -25 -6 0 -1 -11 -4 -25 -6 -14 -1 -101 -23 -194
-48 -334 -90 -388 -100 -536 -101 -158 0 -213 13 -307 74 -115 74 -180 188
-190 331 -9 132 27 268 123 458 l62 122 -59 -51 c-211 -183 -490 -575 -593
-834 -44 -112 -76 -243 -76 -315 1 -163 33 -254 120 -340 109 -109 265 -168
470 -177 251 -11 323 12 1355 438 171 70 371 153 445 184 74 32 142 58 150 60
9 2 130 50 270 108 547 226 675 278 695 282 6 2 93 37 195 80 443 184 694 287
711 290 10 2 28 9 41 16 13 7 28 14 33 15 15 3 155 60 190 77 17 8 93 41 170
72 77 31 145 61 150 67 6 6 1 6 -12 -1 -13 -6 -23 -9 -23 -5 0 3 -6 1 -13 -5
-8 -6 -16 -9 -19 -6 -2 3 -290 -67 -639 -154 -348 -88 -636 -158 -638 -155 -3
2 9 19 26 37 60 63 93 158 79 232 -9 49 -59 103 -102 111 -38 7 -46 24 -11 24
13 0 43 13 68 28 86 55 125 180 86 274 -20 48 -75 101 -123 117 -51 18 -428
28 -438 12z m302 -204 c31 -29 29 -72 -6 -107 -26 -26 -95 -50 -108 -37 -3 3
0 34 6 68 19 116 17 111 53 104 18 -4 42 -16 55 -28z m-60 -347 c60 -37 38
-116 -45 -159 -12 -6 -33 -11 -48 -11 -21 0 -25 4 -21 23 3 12 10 55 16 95 11
68 13 72 38 72 15 0 42 -9 60 -20z"/>
<path d="M1458 1892 c-64 -39 -73 -129 -18 -184 24 -23 37 -28 78 -28 57 0 92
22 112 70 12 28 16 30 66 30 30 0 54 -4 54 -10 0 -5 9 -10 20 -10 16 0 20 7
20 35 0 37 -22 49 -34 19 -4 -11 -18 -14 -58 -12 -48 3 -53 5 -73 42 -12 21
-32 44 -46 52 -33 18 -89 17 -121 -4z m100 -90 c4 -28 -14 -52 -38 -52 -26 0
-43 26 -36 55 6 22 11 26 39 23 25 -2 33 -8 35 -26z"/>
<path d="M937 1823 c-4 -3 -7 -19 -7 -35 0 -23 4 -28 23 -28 20 0 23 4 19 35
-4 32 -19 45 -35 28z"/>
<path d="M1180 1815 c-20 -25 -8 -50 25 -50 24 0 31 5 33 24 6 37 -34 55 -58
26z"/>
<path d="M1005 1693 c3 -16 17 -104 30 -198 14 -93 28 -177 31 -187 12 -38 73
-48 295 -48 213 0 257 6 285 41 12 14 78 409 70 416 -2 2 -28 -14 -57 -36 -81
-62 -147 -84 -261 -89 -131 -5 -225 23 -341 102 -48 33 -58 33 -52 -1z m229
-249 c19 -19 20 -36 4 -52 -36 -36 -96 11 -62 49 21 23 37 24 58 3z m316 2 c6
-8 10 -25 8 -38 -2 -18 -10 -24 -35 -26 -28 -3 -33 1 -39 23 -11 45 37 75 66
41z"/>
</g>
</svg>
